<?xml version="1.0" encoding="utf-8"?>
<!-- Generator: Adobe Illustrator 27.5.0, SVG Export Plug-In . SVG Version: 6.00 Build 0)  -->
<svg version="1.1" xmlns="http://www.w3.org/2000/svg" xmlns:xlink="http://www.w3.org/1999/xlink" x="0px" y="0px"
	 viewBox="0 0 750 500" style="enable-background:new 0 0 750 500;" xml:space="preserve">
<!-- <g id="BACKGROUND">
	<rect style="fill:#FFFFFF;" width="750" height="500"/>
</g> -->
<g id="OBJECTS">
	<g>
		<g>
			<g>
				<defs>
					<path id="SVGID_1_" d="M631.995,383.564c-3.171-0.15-6.248-0.476-9.16-0.961c-25.816-4.305-51.3-23.75-78.279-15.693
						c-15.136,4.52-26.268,17.231-40.095,24.872c-20.274,11.204-45.016,10.777-67.782,6.503s-44.861-12.069-67.874-14.711
						c-11.359-1.304-23.035-1.213-34.261,1.113c-10.401,2.155-18.941,8.495-28.982,10.948c-18.642,4.555-43.305,1.945-61.467-3.21
						c-22.345-6.342-42.653-19.615-65.654-22.854c-17.566-2.474-35.377,1.109-53.117,1.168c-25.279,0.084-55.442-14.4-72.162-33.473
						c-16.693-19.041-23.127-46.58-16.6-71.047c4.536-17,14.839-32.445,16.522-49.959c1.463-15.225-3.761-30.174-6.88-45.147
						c-6.557-31.481,12.257-59.422,32.741-82.41c19.75-22.164,47.46-38.011,77.533-39.289
						c51.813-2.202,99.083,36.178,150.859,33.238c27.344-1.553,52.5-14.508,78.126-24.174c15.837-5.973,34.261-11.499,51.128-12.416
						c19.317-1.051,39.071,11.226,54.641,21.161c18.577,11.853,37.683,24.998,59.642,26.841c18.127,1.521,35.906-4.916,54.009-6.71
						c33.272-3.297,64.54,13.823,84.873,39.41c23.454,29.514,24.179,58.608,24.878,94.107c0.435,22.109,1.238,43.733-1.658,65.771
						c-5.054,38.462-20.146,87.545-63.978,95.843C643.409,383.544,637.674,383.832,631.995,383.564z"/>
				</defs>
				<clipPath id="SVGID_00000171709295959493417090000017727595173522323102_">
					<use xlink:href="#SVGID_1_"  style="overflow:visible;"/>
				</clipPath>
				<path style="clip-path:url(#SVGID_00000171709295959493417090000017727595173522323102_);fill:#5e01bc;" d="M631.995,383.564
					c-3.171-0.15-6.248-0.476-9.16-0.961c-25.816-4.305-51.3-23.75-78.279-15.693c-15.136,4.52-26.268,17.231-40.095,24.872
					c-20.274,11.204-45.016,10.777-67.782,6.503s-44.861-12.069-67.874-14.711c-11.359-1.304-23.035-1.213-34.261,1.113
					c-10.401,2.155-18.941,8.495-28.982,10.948c-18.642,4.555-43.305,1.945-61.467-3.21c-22.345-6.342-42.653-19.615-65.654-22.854
					c-17.566-2.474-35.377,1.109-53.117,1.168c-25.279,0.084-55.442-14.4-72.162-33.473c-16.693-19.041-23.127-46.58-16.6-71.047
					c4.536-17,14.839-32.445,16.522-49.959c1.463-15.225-3.761-30.174-6.88-45.147c-6.557-31.481,12.257-59.422,32.741-82.41
					c19.75-22.164,47.46-38.011,77.533-39.289c51.813-2.202,99.083,36.178,150.859,33.238c27.344-1.553,52.5-14.508,78.126-24.174
					c15.837-5.973,34.261-11.499,51.128-12.416c19.317-1.051,39.071,11.226,54.641,21.161
					c18.577,11.853,37.683,24.998,59.642,26.841c18.127,1.521,35.906-4.916,54.009-6.71c33.272-3.297,64.54,13.823,84.873,39.41
					c23.454,29.514,24.179,58.608,24.878,94.107c0.435,22.109,1.238,43.733-1.658,65.771c-5.054,38.462-20.146,87.545-63.978,95.843
					C643.409,383.544,637.674,383.832,631.995,383.564z"/>
				<g style="clip-path:url(#SVGID_00000171709295959493417090000017727595173522323102_);">
					<g>
						<path style="fill:#DE8691;" d="M98.581,400.532c-2.408,6.971-0.574,14.612,1.247,21.759
							c1.821,7.147,3.597,14.816,1.087,21.752c-0.43,1.188-0.99,2.393-0.877,3.651c0.113,1.258,1.248,2.533,2.476,2.238
							c0.817-0.196,1.34-0.976,1.754-1.706c4.137-7.286,5.671-16.017,4.265-24.277c1.971,9.571,1.27,19.678-2.005,28.885
							c-0.323,0.908-0.676,1.845-0.592,2.804c0.083,0.96,0.753,1.947,1.712,2.037c1.072,0.1,1.906-0.885,2.476-1.799
							c5.545-8.906,5.414-20.084,5.107-30.571c1.344,9.341,1.051,18.915-0.861,28.156c-0.197,0.954-0.413,1.933-0.246,2.893
							c0.167,0.959,0.821,1.906,1.776,2.097c1.5,0.299,2.664-1.266,3.308-2.654c4.325-9.328,4.289-20.006,4.173-30.287
							c0.215,9.784,0.43,19.569,0.645,29.353c0.02,0.904,0.165,2.004,1,2.353c0.971,0.405,1.938-0.566,2.492-1.461
							c3.561-5.754,3.717-12.107,4.126-18.627c0.48-7.656,0.26-15.356-0.66-22.971c-0.688-5.695-1.648-11.954,1.472-16.768"/>
					</g>
					<g>
						<path style="fill:#AF5A5A;" d="M654.173,263.624c4.282-5.35,3.971-12.912,3.501-19.748c-0.292-4.235-0.332-8.477-0.483-12.703
							c-0.039-1.088,0.009-2.22,0.499-3.193c1.415-2.81,3.724-0.183,4.252,1.695c0.938,3.338,1.101,7.143,1.257,10.59
							c-0.026-0.571,0.928-1.82,1.185-2.363c0.452-0.956,0.877-1.925,1.275-2.905c0.795-1.96,1.481-3.964,2.053-6
							c0.469-1.667,1.053-3.176,1.611-4.782c0.722-2.079,0.9-4.399,1.49-6.527c0.415-1.497,1.507-3.319,3-2.891
							c1.37,0.393,1.497,2.263,1.328,3.679c-0.409,3.441-1.43,6.747-1.989,10.11c-0.613,3.688-1.142,7.296-2.24,10.888
							c2.007-3.462,3.725-7.092,5.132-10.838c1.389-3.699,2.276-7.598,3.885-11.204c0.59-1.322,1.618-3.215,3.372-2.309
							c1.623,0.838,1.124,4.003,0.836,5.544c-1.368,7.306-3.541,14.401-5.472,21.592c0.412-1.533,2.155-3.349,2.97-4.749
							c0.936-1.609,1.703-3.014,2.257-4.789c1.241-3.975,2.482-7.951,3.722-11.926c0.421-1.35,1.512-2.314,2.929-1.663
							c1.492,0.686,1.221,2.265,1.029,3.658c-1.02,7.386-3.035,14.393-4.781,21.644c1.974-2.971,3.422-6.291,4.256-9.758
							c0.202-0.837,0.385-1.719,0.938-2.379c0.553-0.66,1.616-0.985,2.286-0.444c1.561,1.26,0.851,4.515,0.711,6.135
							c0,5.543-1.744,11.211-2.881,16.629c-1.234,5.881-2.511,11.754-3.831,17.617"/>
					</g>
					<g>
						<path style="fill:#592E2E;" d="M602.406,179.737c6.214-1.25,11.559-6.127,13.372-12.201
							c1.813-6.074,0.016-13.082-4.495-17.535c3.229-3.591,2.816-9.475,0.011-13.406c-2.805-3.931-7.455-6.167-12.14-7.337
							c5.131-5.256,1.95-15.455-4.765-18.044c-5.622-2.167-11.863-1.99-17.747-1.273c-5.951,0.725-11.854,2.013-17.848,2.097
							c-7.341,0.103-14.626-1.607-21.964-1.39c-7.338,0.216-15.287,2.928-18.849,9.348c-5.585-1.836-12.298,0.829-15.103,5.996
							c-1.398,2.576-1.861,5.541-2.821,8.31c-1.501,4.325-5.126,6.863-6.185,11.46c-0.582,2.527-0.523,5.142,0.19,7.638
							c0.164,0.574,3.166,6.498,3.447,6.155c-2.642,3.225-3.816,7.608-3.139,11.722c0.677,4.114,3.194,7.889,6.73,10.097
							c-2.344,6.583,1.06,14.678,7.404,17.608"/>
					</g>
					<g>
						<g>
							<path style="fill:#FFC35A;" d="M599.626,174.44c5.406-0.576,10.823-0.975,16.255-1.198c1.187-0.049,1.192-1.896,0-1.848
								c-5.432,0.223-10.849,0.622-16.255,1.198C598.454,172.717,598.442,174.566,599.626,174.44L599.626,174.44z"/>
						</g>
					</g>
					<g>
						<path style="fill:#292D41;" d="M527.841,293.324c-1.831-11.861-2.79-24.498,3.64-35.208
							c6.277-10.454,18.907-14.995,30.498-15.454c11.496-0.456,24.858,2.814,33.342,10.913c9.239,8.82,9.207,23.304,9.244,35.087
							c0.005,1.787,2.777,1.787,2.771,0c-0.04-13.107-0.586-26.95-10.055-37.046c-8.884-9.472-24.628-12.148-36.971-11.659
							c-11.947,0.474-23.309,5.939-30.442,15.594c-8.064,10.915-6.64,25.936-4.699,38.51
							C525.44,295.822,528.11,295.072,527.841,293.324L527.841,293.324z"/>
					</g>
					<g>
						<path style="fill:#AF5A5A;" d="M516.947,192.167c0,0-16.925,2.257-11.115,18.418c4.837,13.456,15.026,13.619,23.099,10.614
							c0,0,10.257,13.106,20.621,14.894l-0.716,15.632c-0.042,0.907-0.606,1.659-1.383,1.997c4.022,4.132,9.719,6.672,15.5,6.57
							c6.349-0.112,12.484-3.406,16.348-8.416c-1.026-0.279-1.751-1.247-1.682-2.356l0.94-15.105
							c36.96-6.857,28.953-41.711,25.436-74.036c-3.518-32.325-33.005-32.455-33.005-32.455s-42.625-6.918-50.763,5.218
							c-8.138,12.136-18.296,19.161-15.761,22.602C506.999,159.186,516.947,192.167,516.947,192.167z"/>
					</g>
					<g>
						<path style="fill:#EED9E7;" d="M691.289,268.745l-42.714-10.572l-11.739,40.288c0,0-6.367-13.771-18.413-30.424
							c-9.971-13.784-31.491-15.795-38.612-16.079c-0.177-0.007-0.346-0.038-0.51-0.082c-3.864,5.01-9.998,8.305-16.348,8.416
							c-5.781,0.102-11.478-2.439-15.5-6.57c-0.322,0.14-0.676,0.216-1.051,0.191c-8.587-0.567-38.5,0.029-47.505,34.488
							c-10.554,40.386,4.054,68.859,4.054,68.859l9.171,36.332c71.606,27.493,111.427-4.539,111.427-4.539
							c0.541-17.072-11.317-54.746-11.317-54.746s11.455,27.382,37.839,32.118C676.455,371.161,691.289,268.745,691.289,268.745z"/>
					</g>
					<g>
						<path style="fill:#79CCBC;" d="M388.389,284.991c-12.326-23.469-36.34-30.08-49.728-31.055
							c-4.943,6.249-12.484,10.491-20.457,11.025c-9.091,0.609-18.277-3.623-24.017-10.654c-6.72,1.122-16.861,3.285-24.881,7.036
							c-13.178,6.165-31.797,43.78-31.797,43.78l23.696,42.089l0.54,0.052l-9.753,57.726c0,0,72.606,31.131,126.139-0.322
							l-15.666-67.681c23.029-1.677,42.057-15.23,42.057-15.23S401.149,309.287,388.389,284.991z"/>
					</g>
					<g>
						<ellipse style="fill:#C4707E;" cx="487.456" cy="203.424" rx="11.08" ry="16.525"/>
						<g>
							<path style="fill:#341F4C;" d="M383.367,154.081c-4.25-0.01-8.249-3.368-8.993-7.553c-0.744-4.184,1.852-8.716,5.838-10.19
								c-4.798-1.01-8.291-6.211-7.412-11.035c0.879-4.824,5.983-8.457,10.829-7.709c-1.113-0.172-1.652-4.457-1.691-5.294
								c-0.093-2.005,0.35-4.062,1.298-5.835c2.143-4.004,6.644-5.668,11.038-4.685c3.113,0.696,5.885,2.793,7.402,5.599
								c2.259-2.373,5.033-4.353,8.201-5.187c3.168-0.834,6.759-0.402,9.353,1.599c2.594,2.002,3.93,5.684,2.767,8.747
								c3.963-1.514,8.912-1.036,11.822,2.052c2.91,3.087,2.671,8.903-1.005,11.023c3.935-0.155,7.759,2.847,8.542,6.707
								c0.783,3.86-1.567,8.115-5.251,9.506"/>
						</g>
						<path style="fill:#CC7987;" d="M518.782,301.71c0,0,17.085,40.246,10.959,51.668c-6.127,11.422-27.576,22.521-69.68,21.427
							l-8.882-29.965l47.54-7.08l-3.799-32.464L518.782,301.71z"/>
						<g>
							<path style="fill:#5691F6;" d="M467.544,266.12c-0.313,0.019-0.61-0.031-0.894-0.113c-3.54,5.158-9.332,8.824-15.59,9.341
								c-6.556,0.542-13.167-2.416-17.51-7.318c-6.939,1.408-11.876,3.506-11.876,3.506c-0.355,0.086-0.705,0.177-1.051,0.275
								c-26.669,7.493-27.652,48.213-27.652,48.213l12.003,54.78l-4.339,29.56c90.979,27.069,116.505-4.072,116.505-4.072
								c-2.431-28.731-18.57-58.011-18.57-58.011c-0.218-13.306-2.429-22.719-2.429-22.719
								c19.291-6.235,25.413-14.461,25.413-14.461C501.974,267.581,476.24,265.602,467.544,266.12z"/>
						</g>
						<g>
							<path style="fill:#FFC35A;" d="M391.855,148.1c-0.725-3.192,0.268-6.723,2.552-9.068s5.786-3.432,8.997-2.792
								c1.581-2.99,4.922-4.96,8.304-4.898c3.382,0.063,6.647,2.155,8.117,5.201"/>
						</g>
						<g>
							<path style="fill:#341F4C;" d="M487.534,184.047c13.527-20.846-3.922-48.845-27.337-50.707
								c-7.881-0.627-15.721,1.475-23.624,1.693c-7.34,0.203-14.715-1.219-22.001-0.31c-7.287,0.909-14.938,4.989-16.902,12.065
								c-6.561,0.638-11.283,4.818-14.057,10.524c-1.919,3.947-2.619,8.377-2.911,12.756c-0.991,14.885,2.59,30.044,10.139,42.912"
								/>
						</g>
						<g>
							<path style="fill:#DE8691;" d="M486.747,169.393c-4.65-25.005-26.686-25.809-26.686-25.809l-8.882,2.141l-33.482-2.141
								l-9.928,5.931l-4.793,51.158c-0.187,1.991-1.743,3.605-3.733,3.794c-4.933,0.469-13.289,3.252-11.05,17.02
								c3.371,20.725,23.825,16.652,23.825,16.652c11.375,12.335,25.745,13.372,25.745,13.372l-1.491,14.034
								c-0.126,1.187-1.018,2.147-2.189,2.375c-0.261,0.051-0.514,0.105-0.77,0.158c0,0.001,0.001,0.002,0.001,0.004
								c0.081-0.017,0.154-0.035,0.236-0.052c4.343,4.902,10.954,7.86,17.51,7.318c6.258-0.517,12.051-4.184,15.59-9.341l0,0
								c-1.172-0.337-2.024-1.442-1.956-2.738l0.709-13.434C501.53,243.614,491.398,194.398,486.747,169.393z"/>
						</g>
						<path style="fill:#FFFFFF;" d="M451.893,219.512c0.788,4.089,4.048,7.155,7.953,7.155c2.887,0,5.416-1.679,6.861-4.204
							C461.547,222.484,456.361,221.555,451.893,219.512z"/>
						<g>
							<g>
								<g>
									<path style="fill:#9E525F;" d="M409.129,232.974c0.136,0.033,0.774-1.711,1-4.699c0.095-1.49,0.064-3.296-0.344-5.26
										c-0.398-1.962-1.227-4.068-2.585-5.972c-1.364-1.896-3.142-3.375-5.018-4.201c-1.872-0.835-3.743-1.048-5.264-0.93
										c-1.53,0.129-2.711,0.563-3.45,0.97c-0.744,0.408-1.073,0.751-1.035,0.809c0.094,0.201,1.671-0.89,4.521-0.912
										c1.403-0.002,3.092,0.284,4.751,1.088c1.658,0.794,3.246,2.153,4.498,3.892c1.247,1.75,2.048,3.679,2.479,5.505
										c0.443,1.829,0.563,3.545,0.58,4.985C409.264,231.138,408.935,232.939,409.129,232.974z"/>
								</g>
								<g>
									<path style="fill:#9E525F;" d="M403.638,228.14c0.139-0.128-0.346-0.765-0.741-1.907c-0.401-1.121-0.646-2.834-0.059-4.513
										c0.597-1.675,1.864-2.854,2.881-3.474c1.025-0.641,1.803-0.832,1.775-1.019c-0.008-0.145-0.881-0.272-2.167,0.245
										c-1.26,0.492-2.906,1.775-3.645,3.839c-0.722,2.07-0.247,4.103,0.424,5.277
										C402.782,227.798,403.541,228.248,403.638,228.14z"/>
								</g>
							</g>
							<g>
								<path style="fill:#9E525F;" d="M464.908,214.512c-0.007,0.063,0.54,0.217,1.523,0.015c0.968-0.19,2.367-0.875,3.444-2.361
									c0.534-0.736,0.957-1.69,1.065-2.793c0.118-1.111-0.157-2.284-0.671-3.365c-1.024-2.189-2.933-3.915-4.236-6.014
									c-1.324-2.11-2.03-4.444-2.279-6.597c-0.28-2.16-0.058-4.144,0.285-5.757c0.727-3.25,2.012-4.986,1.816-5.102
									c-0.062-0.044-0.435,0.341-0.979,1.143c-0.534,0.806-1.188,2.068-1.678,3.745c-0.473,1.673-0.802,3.772-0.569,6.088
									c0.202,2.307,0.924,4.839,2.363,7.132c1.453,2.297,3.325,3.953,4.26,5.858c0.475,0.926,0.73,1.909,0.672,2.793
									c-0.046,0.896-0.351,1.723-0.772,2.388c-0.846,1.345-2.016,2.08-2.858,2.385
									C465.443,214.39,464.907,214.408,464.908,214.512z"/>
							</g>
							<g>
								<path style="fill:#9E525F;" d="M461.607,212.325c0.166-0.295-0.392-0.924-1.246-1.405c-0.854-0.48-1.681-0.631-1.847-0.335
									c-0.166,0.295,0.392,0.924,1.246,1.405C460.614,212.47,461.441,212.62,461.607,212.325z"/>
							</g>
							<g>
								<path style="fill:#9E525F;" d="M441.091,207.608c0.337-0.037,0.29-2.939-0.105-6.482c-0.395-3.542-0.987-6.383-1.324-6.346
									c-0.337,0.038-0.29,2.939,0.105,6.482C440.162,204.805,440.754,207.646,441.091,207.608z"/>
							</g>
							<g>
								<path style="fill:#9E525F;" d="M480.389,205.791c0.337-0.038,0.281-3.013-0.125-6.646c-0.406-3.633-1.007-6.547-1.344-6.509
									c-0.337,0.038-0.281,3.013,0.125,6.645C479.451,202.914,480.052,205.829,480.389,205.791z"/>
							</g>
							<g>
								<path style="fill:#9E525F;" d="M443.387,176.844c0.021-0.15-0.877-0.453-2.394-0.489c-1.509-0.043-3.638,0.263-5.763,1.225
									c-1.627,0.732-2.991,1.705-3.962,2.649c-0.981,0.94-1.56,1.843-1.848,2.37l-0.847,1.556l1.158-1.24
									c0.254-0.273,0.369-0.45,0.322-0.514c-0.047-0.064-0.25-0.008-0.587,0.153l0.31,0.317c0.458-0.376,1.15-1.105,2.155-1.883
									c0.997-0.783,2.297-1.612,3.802-2.29C439.688,176.864,443.367,177.216,443.387,176.844z"/>
							</g>
							<g>
								<path style="fill:#9E525F;" d="M484.409,178.736c0.127-0.084-0.154-0.826-0.971-1.796c-0.808-0.967-2.211-2.099-4.021-2.823
									c-1.812-0.718-3.609-0.86-4.861-0.713c-1.26,0.142-1.974,0.489-1.94,0.637c0.059,0.358,3.05-0.139,6.346,1.216
									C482.29,176.538,484.121,178.956,484.409,178.736z"/>
							</g>
						</g>
						<path style="fill:#4073BF;" d="M467.544,266.12c-0.313,0.019-0.61-0.031-0.894-0.113c-3.54,5.158-9.332,8.824-15.59,9.341
							c-6.556,0.542-13.167-2.416-17.51-7.318c-0.891,0.181-1.747,0.373-2.566,0.571c2.453,5.803,7.61,10.465,13.714,12.102
							c7.304,1.959,15.612-0.497,20.677-6.112c2.238-2.482,3.783-5.392,4.862-8.524C469.218,266.05,468.312,266.074,467.544,266.12z
							"/>
						<g>
							<g>
								<path style="fill:#FFFFFF;" d="M496.527,327.63c0.152,0.005,0.419-2.488,0.427-6.539c0.011-4.048-0.311-9.653-1.283-15.765
									c-0.982-6.11-2.424-11.536-3.697-15.379c-1.27-3.846-2.302-6.132-2.445-6.079c-0.175,0.063,0.565,2.447,1.613,6.327
									c1.052,3.879,2.345,9.278,3.317,15.325c0.962,6.048,1.417,11.581,1.628,15.595
									C496.3,325.129,496.341,327.624,496.527,327.63z"/>
							</g>
							<g>
								<path style="fill:#FFFFFF;" d="M494.147,300.539c0.291,0.118,1.804-3.511,1.909-8.292c0.137-4.78-1.191-8.481-1.487-8.378
									c-0.354,0.086,0.396,3.773,0.261,8.347C494.733,296.791,493.798,300.435,494.147,300.539z"/>
							</g>
						</g>
						<path style="fill:#FFC35A;" d="M489.773,309.561l-19.678,3.4c-2.027,0.35-3.954-1.009-4.305-3.036l-0.76-4.398
							c-0.35-2.027,1.009-3.954,3.036-4.305l19.678-3.4c2.027-0.35,3.954,1.009,4.304,3.036l0.76,4.398
							C493.16,307.284,491.8,309.211,489.773,309.561z"/>
						<g style="opacity:0.21;">
							<path style="fill:#DE8691;" d="M398.437,204.827c9.556-0.249,18.373-6.301,23.492-14.374
								c5.118-8.073,6.889-17.907,6.673-27.463c5.148,3.937,11.946,5.167,18.418,4.821c6.472-0.346,12.766-2.127,19.062-3.668
								c6.295-1.541,12.765-2.859,19.218-2.256c0.188-4.157-2.653-8.031-6.306-10.025c-3.652-1.995-7.972-2.388-12.129-2.198
								c-10.257,0.471-20.706,4.203-30.554,1.294c-3.451-1.019-6.616-2.812-9.945-4.18c-3.328-1.368-7.002-2.318-10.515-1.534
								c-3.512,0.784-6.737,3.728-6.843,7.325"/>
						</g>
						<g>
							<path style="fill:#341F4C;" d="M480.314,148.248c-4.125-3.932-9.477-6.385-14.981-7.865
								c-16.735-4.498-34.419-0.45-51.746-0.205l1.179-0.001c-0.128,1.325-0.065,2.641,0.16,3.928
								c-2.633-0.987-5.676-0.515-8.355,0.454c-5.394,1.951-10.573,5.972-13.345,11.065c-2.589,4.757,0.986,11.449,1.815,16.515
								c0.788,4.812-0.035,9.355-0.768,14.12c-0.71,4.617-0.646,13.619,4.151,16.365c3.165,1.812,7.282-0.067,9.709-2.788
								c7.184-8.053,13.072-18.361,14.421-29.146c0.332-2.653,1.731-13.349-0.598-15.238c0.931,0.755,1.918,1.439,2.952,2.023
								c6.158,3.474,13.525,4.139,20.584,3.741c7.059-0.398,14.04-1.776,21.105-2.08c7.064-0.304,14.436,0.564,20.451,4.281
								C487.227,157.721,484.439,152.18,480.314,148.248z"/>
						</g>
						<path style="fill:#CC7987;" d="M497.299,325.624l1.42,12.136l-47.54,7.08l8.882,29.965
							c42.104,1.094,63.553-10.005,69.68-21.427c3.955-7.372-1.761-26.751-6.311-39.567
							C515.096,318.482,506.269,322.219,497.299,325.624z"/>
						<g>
							<path style="fill:#DE8691;" d="M524.742,341.809c-0.229-0.711-0.995-1.141-1.74-1.196c-0.745-0.055-1.477,0.19-2.177,0.45
								c-5.757,2.135-10.996,5.446-16.111,8.843c4.807-4.16,10.006-7.867,15.505-11.057c0.654-0.38,1.334-0.771,1.776-1.384
								c0.442-0.614,0.575-1.522,0.097-2.108c-0.456-0.558-1.277-0.64-1.994-0.563c-1.377,0.148-2.672,0.709-3.922,1.306
								c-4.812,2.298-9.323,5.226-13.38,8.686c2.742-4.748,7.443-8.038,12.304-10.574c0.758-0.395,1.554-0.802,2.052-1.496
								c0.352-0.491,0.72-1.839,0.01-2.242c-0.476-0.271-1.957,0.258-2.474,0.37c-1.861,0.402-3.68,0.999-5.429,1.751
								c-1.829,0.787-3.586,1.745-5.234,2.864c-1.293,0.878-3.351,2.092-4.177,3.455c2.077-3.427,4.219-7.064,4.299-11.071
								c0.02-1.012-0.432-2.338-1.441-2.265c-0.697,0.05-1.118,0.769-1.425,1.396c-2.229,4.557-5.457,8.628-9.872,11.228
								c-2.504,1.474-5.861,1.487-8.697,1.947c-2.909,0.472-5.818,0.944-8.727,1.416c-20.669,0.97-35.937,4.411-35.937,4.411
								l-1.299-9.65l-39.109-6.684c-1.365,9.661-0.125,21.734,1.252,30.584c2.001,12.858,12.285,22.98,25.213,24.456
								c19.006,2.17,43.477-5.419,59.654-11.659l0.109,0.302c4.976-1.682,10.478-4.067,14.846-6.997
								c2.039-1.368,3.623-3.256,5.579-4.713c4.161-3.098,9.112-5.014,13.75-7.27c2.156-1.048,0.742-2.45-1.078-2.307
								c-1.432,0.112-2.805,0.526-4.201,0.831c-2.728,0.597-6.286,1.334-8.639,2.91c3.016-2.02,6.272-3.712,9.463-5.43
								c2.344-1.262,4.663-2.571,6.955-3.926C522.032,345.543,525.513,344.206,524.742,341.809z"/>
						</g>
						<g>
							<path style="fill:#5691F6;" d="M418.521,340.089c6.875-0.273,13.611-1.109,20.141-2.721
								c0.081-11.01-1.185-62.543-32.25-56.857c0,0-19.339,11.602-16.945,56.553C398.66,340.233,409.004,340.467,418.521,340.089z"
								/>
							<g>
								<path style="fill:#FFFFFF;" d="M439.274,338.996c0.079,0.001,0.189-1.096,0.259-3.086c0.069-1.99,0.112-4.872,0.012-8.433
									c-0.094-3.56-0.331-7.799-0.794-12.489c-0.231-2.345-0.525-4.801-0.87-7.34c-0.346-2.54-0.758-5.184-1.469-7.848
									c-0.684-2.667-1.727-5.197-3.054-7.455c-1.355-2.246-3.013-4.179-4.785-5.795c-3.572-3.238-7.643-5.058-11.165-5.839
									c-3.541-0.806-6.534-0.572-8.493-0.163c-0.98,0.241-1.73,0.446-2.216,0.662c-0.492,0.193-0.741,0.313-0.727,0.352
									c0.014,0.04,0.291-0.002,0.799-0.116c0.502-0.138,1.259-0.264,2.225-0.428c1.936-0.255,4.825-0.346,8.208,0.536
									c3.366,0.856,7.235,2.691,10.604,5.828c1.675,1.569,3.242,3.433,4.516,5.576c1.248,2.159,2.238,4.571,2.902,7.157
									c0.689,2.579,1.104,5.177,1.464,7.698c0.359,2.526,0.676,4.964,0.936,7.292c0.521,4.657,0.847,8.867,1.051,12.407
									c0.211,3.54,0.3,6.411,0.377,8.396C439.132,337.895,439.184,338.995,439.274,338.996z"/>
							</g>
						</g>
					</g>
					<g>
						<path style="fill:#722E44;" d="M272.635,180.014c-11.717-10.617-13.953-28.633-6.686-42.374
							c-4.26-19.487,17.882-27.564,32.574-30.344c16.647-3.15,37.145-1.119,49.598,11.553c0.272,0.276,6.391-0.821,7.285-0.796
							c2.895,0.082,5.78,0.628,8.504,1.612c3.943,1.425,8.63,4.815,10.992,8.327c2.239,3.33,3.294,7.481,2.772,11.471
							c4.872,7.996,6.762,17.764,5.224,27.001c-1.538,9.237-6.492,17.865-13.693,23.85"/>
					</g>
					<g>
						<path style="fill:#BC6868;" d="M287.749,188.005c1.355,9.249-2.502,17.472-8.615,18.368
							c-6.113,0.896-12.167-5.876-13.523-15.124c-1.355-9.249,2.502-17.472,8.615-18.368
							C280.34,171.985,286.394,178.756,287.749,188.005z"/>
						
							<ellipse transform="matrix(0.139 -0.9903 0.9903 0.139 123.4655 522.7903)" style="fill:#BC6868;" cx="362.394" cy="190.389" rx="16.925" ry="11.187"/>
					</g>
					<path style="fill:#CC7976;" d="M363.659,332.327l3.357,19.421l-64.318,1.63l-1.484,30.81c0,0,80.474,30.354,106.169-0.994
						c0,0,11.554-16.801-8.294-59.582c-19.849-42.781-32.166,6.313-32.166,6.313"/>
					<path style="fill:#CC7976;" d="M336.278,119.59h-33.302c-17.484,0-31.425,14.605-30.612,32.071l2.018,43.326
						c0.846,18.16,12.192,33.436,28.002,40.089l-0.81,15.351c-0.087,1.641-1.322,2.988-2.95,3.208
						c-1.182,0.16-2.701,0.383-4.437,0.673c5.74,7.03,14.926,11.263,24.017,10.654c7.973-0.534,15.514-4.776,20.457-11.025
						c-1.601-0.117-3.012-0.178-4.153-0.204c-1.855-0.042-3.328-1.564-3.328-3.419v-13.01c19.587-4.855,34.244-22.319,34.734-43.382
						l1.001-42.974C367.315,133.748,353.482,119.59,336.278,119.59z"/>
					<g>
						<path style="fill:#341F4C;" d="M148.515,113.32c-3.37-3.331-8.509-4.17-13.237-3.864c-8.304,0.538-16.337,4.154-22.407,9.847
							c-6.07,5.693-10.169,13.399-11.731,21.573c-2.376,12.437,0.87,25.099,0.16,37.607c-0.661,11.642-4.744,23.091-11.706,32.455
							c-2.749,3.698-5.924,7.076-8.476,10.912c-2.552,3.836-4.492,8.281-4.347,12.886c0.182,5.772,3.926,11.284,9.224,13.579
							c6.837,2.963,14.904,1.605,21.566-1.304c-2.813,6.704-1.129,14.843,3.485,20.462c4.613,5.62,11.8,8.802,19.049,9.357
							c6.172,0.473,12.702-0.971,17.367-5.038c3.656-3.187,4.165-5.998,4.855-10.601c2.361,1.421,5.398,1.309,7.986,0.363
							c2.886-1.055,4.954-2.873,7.167-4.886c2.309-2.101,5.081-3.553,7.206-5.88c4.478-4.903,6.497-11.782,6.165-18.342
							c-0.377-7.438-3.542-14.537-7.943-20.545"/>
					</g>
					<g>
						<path style="fill:#292D41;" d="M152.324,293.036c-2.934-10.036-5.094-21.519-0.33-31.343
							c5.235-10.795,18.753-15.791,29.998-15.68c10.139,0.1,20.204,4.09,27.104,11.58c8.405,9.124,8.38,22.907,8.564,34.539
							c0.028,1.785,2.799,1.788,2.771,0c-0.202-12.835-0.685-26.255-9.375-36.498c-7.359-8.674-19.324-12.296-30.342-12.404
							c-11.886-0.117-24.01,5.862-30.477,15.932c-6.441,10.028-3.694,23.971-0.583,34.611
							C150.152,295.484,152.826,294.755,152.324,293.036L152.324,293.036z"/>
					</g>
					<g>
						<path style="fill:#EED9E7;" d="M232.996,282.668c-11.18-23.158-30.053-25.143-37.583-24.938
							c-0.737,0.02-1.397-0.254-1.907-0.697c-0.512,0.943-1.046,1.887-1.765,2.617c-3.109,3.152-7.429,5.27-11.874,5.512
							c-7.03,0.391-14.186-2.839-18.556-8.274c-0.262,0.066-0.534,0.108-0.817,0.096c-25.454-1.073-39.647,11.695-39.647,11.695
							l14.191,139.891c60.855,18.421,101.335-4.932,101.335-4.932c3.003-14.838-6.79-49.458-6.79-49.458
							c10.068,23.765,30.942,31.889,30.942,31.889l10.848-42.328C260.726,337.053,247.2,312.091,232.996,282.668z"/>
					</g>
					<g>
						<path style="fill:#FFC35A;" d="M119.405,136.914c-1.074-2.913-0.806-6.292,0.715-8.998c1.521-2.707,4.267-4.693,7.314-5.291
							c1.637-3.106,4.907-5.291,8.403-5.615c3.496-0.324,7.111,1.223,9.291,3.976"/>
					</g>
					<g>
						<path style="fill:#3F245A;" d="M123.841,198.285c-5.372-11.456-8.313-24.023-8.734-36.662
							c-0.342-10.28-1.012-24.386,8.139-30.888c0.694-0.493,6.697-3.028,6.736-3.237c1.26-6.71,7.247-11.74,13.737-13.859
							c6.49-2.119,13.484-1.862,20.306-1.582c8.926,0.366,18.853,2.048,27.727,1.117c7.293-0.765,14.267-2.835,21.635-0.432
							c13.443,4.383,16.389,19.92,11.353,31.807c4.23,5.71,6.268,13.002,5.611,20.078c-0.657,7.075-4.003,13.868-9.212,18.701"/>
					</g>
					<g>
						<g>
							<path style="fill:#FFC35A;" d="M217.443,180.534c6.95-0.694,13.9-1.388,20.85-2.082c1.174-0.117,1.185-1.966,0-1.847
								c-6.95,0.694-13.9,1.388-20.85,2.082C216.27,178.804,216.258,180.652,217.443,180.534L217.443,180.534z"/>
						</g>
					</g>
					<g>
						<path style="fill:#DE8691;" d="M144.47,222.568c8.396,11.052,20.546,15.239,20.546,15.239l-1.563,16.611
							c-0.115,1.225-1.002,2.184-2.141,2.47c4.369,5.434,11.526,8.664,18.556,8.274c4.444-0.242,8.765-2.36,11.874-5.512
							c0.719-0.729,1.253-1.674,1.765-2.617c-0.674-0.585-1.078-1.471-0.975-2.441l1.513-14.261
							c48.425-8.798,30.712-56.727,24.293-94.628c-6.42-37.9-64.309-19.703-64.309-19.703l-21.033,12.052l0.411,50.361
							c0.016,1.96-1.375,3.624-3.295,4.017c-4.945,1.013-13.323,4.578-10.081,17.118C125.191,229.509,144.47,222.568,144.47,222.568
							z"/>
					</g>
					<g>
						<g>
							<path style="fill:#9E525F;" d="M143.063,218.275c0.18,0.039,0.853-1.821,0.877-5.005c-0.008-1.583-0.208-3.499-0.882-5.527
								c-0.66-2.029-1.861-4.139-3.627-5.902c-1.771-1.755-3.947-2.954-6.097-3.392c-2.146-0.448-4.146-0.2-5.685,0.317
								c-1.546,0.532-2.642,1.307-3.278,1.938c-0.642,0.633-0.865,1.088-0.795,1.15c0.183,0.208,1.509-1.307,4.388-2.001
								c1.417-0.332,3.195-0.431,5.041,0.033c1.841,0.451,3.723,1.531,5.3,3.091c1.573,1.573,2.69,3.435,3.365,5.259
								c0.69,1.827,0.993,3.594,1.142,5.089C143.072,216.326,142.811,218.238,143.063,218.275z"/>
						</g>
						<g>
							<path style="fill:#9E525F;" d="M136.118,216.096c0.171-0.17-0.369-0.884-0.852-2.138c-0.489-1.233-0.859-3.098-0.373-5.002
								c0.495-1.901,1.721-3.354,2.746-4.197c1.028-0.864,1.847-1.227,1.779-1.459c-0.04-0.191-1.034-0.219-2.412,0.52
								c-1.352,0.71-3.037,2.342-3.663,4.736c-0.611,2.398,0.075,4.642,0.915,5.917C135.107,215.788,135.99,216.243,136.118,216.096
								z"/>
						</g>
						<g>
							<path style="fill:#9E525F;" d="M194.657,202.778c-0.065,0.037,0.36,0.691,1.613,0.807c1.191,0.092,3.106-0.564,4.184-2.588
								c0.492-0.99,0.7-2.186,0.674-3.419c-0.021-1.235-0.253-2.506-0.51-3.787c-0.508-2.562-1.089-5.374-1.721-8.32
								c-2.529-11.786-4.929-21.265-5.361-21.173s1.268,9.722,3.796,21.508c0.632,2.947,1.256,5.749,1.844,8.294
								c0.296,1.268,0.554,2.442,0.625,3.531c0.078,1.083-0.047,2.083-0.377,2.894c-0.316,0.786-0.907,1.393-1.485,1.791
								c-0.583,0.41-1.184,0.59-1.676,0.646C195.261,203.057,194.727,202.656,194.657,202.778z"/>
						</g>
						<g>
							<path style="fill:#9E525F;" d="M172.532,196.139c0.441-0.023,0.63-3.313,0.422-7.349c-0.208-4.036-0.735-7.289-1.176-7.267
								c-0.441,0.023-0.63,3.313-0.422,7.349C171.564,192.908,172.09,196.162,172.532,196.139z"/>
						</g>
						<g>
							<path style="fill:#9E525F;" d="M212.129,193.112c0.44-0.04,0.503-3.342,0.14-7.377c-0.363-4.035-1.014-7.273-1.454-7.234
								c-0.44,0.04-0.503,3.342-0.14,7.377S211.689,193.151,212.129,193.112z"/>
						</g>
						<g>
							<path style="fill:#9E525F;" d="M204.366,206.232c-0.219-0.115-0.794,0.785-2.05,1.798c-1.225,1.012-3.269,2.093-5.644,2.104
								c-2.375-0.003-4.423-1.077-5.651-2.085c-1.259-1.009-1.837-1.906-2.056-1.791c-0.175,0.072,0.054,1.223,1.274,2.609
								c1.176,1.363,3.518,2.86,6.436,2.867c2.919-0.017,5.255-1.522,6.426-2.889C204.317,207.456,204.542,206.303,204.366,206.232z
								"/>
						</g>
						<g>
							<path style="fill:#9E525F;" d="M173.262,160.251c0.04-0.194-0.881-0.618-2.494-0.752c-0.804-0.073-1.771-0.034-2.831,0.129
								c-1.055,0.183-2.199,0.503-3.335,1.001c-1.13,0.512-2.132,1.151-2.973,1.813c-0.829,0.68-1.504,1.374-1.987,2.021
								c-0.978,1.29-1.278,2.258-1.107,2.359c0.205,0.128,0.836-0.597,1.939-1.592c1.099-0.999,2.738-2.221,4.779-3.139
								c2.046-0.906,4.05-1.31,5.528-1.46C172.259,160.474,173.22,160.489,173.262,160.251z"/>
						</g>
						<g>
							<path style="fill:#9E525F;" d="M216.572,159.899c0.16-0.121-0.195-0.967-1.202-2.026c-0.995-1.056-2.707-2.243-4.857-2.895
								c-2.152-0.644-4.235-0.6-5.648-0.269c-1.424,0.326-2.187,0.835-2.121,1.025c0.073,0.228,0.93,0.119,2.256,0.099
								c1.327-0.026,3.141,0.109,5.051,0.678c1.906,0.58,3.494,1.471,4.585,2.225C215.731,159.484,216.385,160.048,216.572,159.899z
								"/>
						</g>
					</g>
					<path style="fill:#EED9E7;" d="M125.813,265.427c0,0-12.351-1.274-23.121,48.704c-10.769,49.978-9.889,104.314-9.889,104.314
						s16.628,8.284,42.235-0.727l5.339-85.213c0.231-3.688,0.675-7.354,1.344-10.988C144.184,308.139,149.1,269.861,125.813,265.427
						z"/>
					<g>
						<g>
							<path style="fill:#FFFFFF;" d="M223.98,335.818c0.206,0.026,0.779-2.783,1.299-7.381c0.525-4.596,0.943-10.985,0.903-18.05
								c-0.048-7.064-0.55-13.449-1.146-18.037c-0.591-4.59-1.217-7.388-1.422-7.359c-0.233,0.033-0.004,2.878,0.296,7.467
								c0.305,4.589,0.625,10.929,0.673,17.939c0.04,7.01-0.197,13.355-0.43,17.949C223.921,332.94,223.747,335.789,223.98,335.818z
								"/>
						</g>
						<g>
							<path style="fill:#FFFFFF;" d="M235.21,376.107c0.21-0.039-0.016-2.424-0.684-6.233c-0.666-3.807-1.806-9.031-3.397-14.714
								c-1.595-5.681-3.336-10.736-4.746-14.335c-1.409-3.6-2.456-5.756-2.655-5.68c-0.435,0.167,2.711,9.155,5.86,20.447
								C232.768,366.877,234.752,376.191,235.21,376.107z"/>
						</g>
						<g>
							<path style="fill:#FFFFFF;" d="M225.428,313.887c0.358,0.212,2.534-3.197,3.31-8.04c0.808-4.837-0.167-8.762-0.574-8.675
								c-0.465,0.059-0.237,3.862-1.005,8.417C226.434,310.151,225.006,313.682,225.428,313.887z"/>
						</g>
					</g>
					<g>
						<path style="fill:#292D41;" d="M151.309,289.322c-2.335-9.088-3.502-18.996,0.685-27.629c1.734-3.575,4.387-6.501,7.555-8.829
							c-0.999,0.086-1.999,0.168-2.999,0.24c-0.429,0.031-0.832,0.019-1.221-0.011c-1.93,1.811-3.657,3.832-5.094,6.069
							c-5.755,8.961-4.172,21.043-1.551,31.106C149.427,289.798,150.303,289.469,151.309,289.322z"/>
						<path style="fill:#292D41;" d="M211.055,255.633c-2.504-2.951-5.549-5.305-8.9-7.147c-0.981,0.568-2.17,0.911-3.576,0.923
							c-0.313,0.003-0.626,0.013-0.94,0.018c4.299,1.932,8.227,4.661,11.456,8.166c8.405,9.124,8.38,22.907,8.564,34.539
							c0.028,1.785,2.799,1.788,2.771,0C220.227,279.296,219.745,265.877,211.055,255.633z"/>
					</g>
					<path style="fill:#5691F6;" d="M182.097,341.782c0,0,18.968-43.199,21.19-83.424c-3.17-0.581-5.91-0.682-7.874-0.628
						c-0.737,0.02-1.397-0.254-1.907-0.697c-0.512,0.943-1.046,1.887-1.765,2.617c-3.109,3.152-7.429,5.27-11.874,5.512
						c-7.03,0.391-14.186-2.839-18.556-8.274c-0.262,0.066-0.534,0.108-0.817,0.096c-2.493-0.105-4.874-0.074-7.149,0.062
						C154.758,271.452,160.358,307.903,182.097,341.782z"/>
					<g>
						<path style="fill:#4073BF;" d="M195.413,257.73c-0.737,0.02-1.397-0.254-1.907-0.697c-0.512,0.943-1.046,1.887-1.765,2.617
							c-3.109,3.152-7.429,5.27-11.874,5.512c-7.03,0.391-14.186-2.839-18.556-8.274c-0.262,0.066-0.534,0.108-0.817,0.096
							c-1.091-0.046-2.152-0.056-3.201-0.052c2.527,7.152,9.496,12.732,17.14,13.809c9.368,1.32,19.001-3.421,24.812-10.888
							c0.477-0.613,0.921-1.247,1.351-1.89C198.567,257.735,196.795,257.692,195.413,257.73z"/>
					</g>
					<g>
						
							<ellipse transform="matrix(0.9227 -0.3854 0.3854 0.9227 -93.3635 107.4338)" style="fill:#4C27AE;" cx="221.288" cy="286.591" rx="11.708" ry="11.708"/>
						<circle style="fill:#5534CE;" cx="221.288" cy="286.591" r="6.08"/>
					</g>
					<g>
						<path style="fill:#FFFFFF;" d="M135.551,408.009c0.121,0,0.202-2.095,0.361-5.876c0.154-3.782,0.395-9.252,0.861-16
							c0.456-6.749,1.163-14.773,2.103-23.669c0.916-8.901,2.167-18.655,3.258-28.95c1.066-10.292,1.693-20.176,1.415-29.177
							c-0.048-1.123-0.095-2.233-0.142-3.33c-0.074-1.093-0.148-2.172-0.221-3.238c-0.101-1.06-0.201-2.107-0.299-3.139
							c-0.154-1.034-0.244-2.06-0.459-3.049c-0.736-3.975-1.93-7.578-3.444-10.664c-2.999-6.208-7.081-10.288-10.285-12.361
							c-0.39-0.255-0.768-0.502-1.134-0.742c-0.368-0.211-0.724-0.389-1.049-0.563c-0.647-0.352-1.204-0.627-1.682-0.793
							c-0.936-0.368-1.433-0.534-1.454-0.483c-0.074,0.159,1.936,0.868,4.957,3.088c3.019,2.179,6.838,6.248,9.622,12.335
							c1.406,3.026,2.503,6.547,3.161,10.411c0.195,0.961,0.267,1.958,0.405,2.961c0.084,1.021,0.17,2.056,0.257,3.105
							c0.06,1.055,0.121,2.123,0.183,3.204c0.036,1.086,0.072,2.185,0.109,3.296c0.194,8.911-0.47,18.715-1.533,28.975
							c-1.088,10.259-2.297,20.043-3.134,28.966c-0.861,8.921-1.453,16.977-1.765,23.752c-0.322,6.774-0.392,12.264-0.354,16.055
							c0.01,1.896,0.061,3.368,0.108,4.365C135.444,407.485,135.496,408.009,135.551,408.009z"/>
					</g>
					<g>
						<g>
							<g>
								<path style="fill:#FFFFFF;" d="M141.51,321.839c0.992,5.445,2.353,10.764,4.326,15.938
									c1.871,4.907,3.894,9.984,7.439,13.921c4.834,5.369,14.228,8.879,19.402,2.029c0.642-0.851-0.708-1.798-1.349-0.95
									c-6.379,8.447-17.347-0.994-20.493-7.566c-3.619-7.561-6.198-15.408-7.7-23.652
									C142.945,320.511,141.319,320.792,141.51,321.839L141.51,321.839z"/>
							</g>
							<path style="fill:#5534CE;" d="M173.889,354.467c-1.238,1.471-3.03,1.999-4.002,1.181c-0.972-0.819-0.756-2.674,0.482-4.145
								c1.238-1.471,3.03-1.999,4.002-1.181C175.343,351.141,175.127,352.996,173.889,354.467z"/>
						</g>
						<g>
							<g>
								<path style="fill:#FFFFFF;" d="M169.416,316.986c1.379,8.371,1.257,16.435,0.714,24.864
									c-0.474,7.36-8.085,19.707-16.748,14.025c-0.888-0.583-1.841,0.764-0.95,1.349c7.365,4.831,14.576-1.921,17.586-8.443
									c2.054-4.451,1.945-9.459,2.259-14.254c0.39-5.951-0.27-11.959-1.236-17.823
									C170.869,315.654,169.243,315.936,169.416,316.986L169.416,316.986z"/>
							</g>
							<path style="fill:#5534CE;" d="M151.739,358.477c1.661,0.968,3.526,0.862,4.166-0.236c0.64-1.098-0.188-2.772-1.849-3.74
								c-1.661-0.968-3.526-0.862-4.166,0.236C149.25,355.835,150.078,357.509,151.739,358.477z"/>
						</g>
						<g>
							<path style="fill:#5534CE;" d="M144.408,324.444l-3.021-17.419c-1.258-7.256,2.887-14.35,9.559-15.789
								c7.014-1.513,13.907,3.594,15.218,11.154l3.078,17.747c0.137,0.788,0.839,1.323,1.569,1.197l0,0
								c0.73-0.127,1.211-0.867,1.074-1.655l-3.009-17.348c-1.526-8.801-9.157-15.209-17.365-14.128
								c-8.628,1.136-14.414,9.783-12.824,18.952l3.078,17.747c0.137,0.788,0.839,1.323,1.569,1.197l0,0
								C144.063,325.972,144.544,325.231,144.408,324.444z"/>
						</g>
					</g>
					<g style="opacity:0.21;">
						<path style="fill:#DE8691;" d="M132.3,191.564c7.766-2.781,14.331-8.76,17.823-16.232c3.492-7.473,3.868-16.345,1.019-24.086
							c6.361,1.227,13.017,1.751,19.26,0.02c6.243-1.731,12.037-6.03,14.252-12.118c4.573,1.983,9.703,2.663,14.634,1.937
							c3.213-0.473,6.489-1.631,8.62-4.081c2.132-2.451,2.725-6.426,0.664-8.936c-2.428-2.96-6.934-2.662-10.755-2.422
							c-8.577,0.539-17.169-0.562-25.763-0.601c-13.482-0.062-25.632,4.64-36.574,12.444"/>
					</g>
					<g>
						<path style="fill:#3F245A;" d="M126.803,192.183c5.899-0.389,9.469-2.512,13.13-7.383c3.025-4.025,4.971-8.873,5.743-13.839
							c1.486-9.552-0.822-19.291-3.949-28.438c7.276,2.069,14.775,4.158,22.294,3.334c7.519-0.824,15.156-5.281,17.413-12.501
							c5.525,2.491,11.548,3.874,17.606,4.045c2.557,0.072,5.191-0.086,7.518-1.149c2.326-1.063,4.301-3.191,4.57-5.734
							c0.264-2.495-1.156-4.942-3.12-6.504s-4.409-2.378-6.832-3.028c-16.022-4.3-33.147-2.517-49.148,1.865
							c-7.833,2.145-16.057,5.324-20.491,12.128c-3.183,4.885-3.921,10.934-4.263,16.755c-0.566,9.655-0.27,19.36,0.883,28.963"/>
					</g>
					<g>
						<g>
							<path style="fill:#FFC35A;" d="M169.938,207.639c-10.86,0-19.694-8.835-19.694-19.695c0-10.859,8.835-19.694,19.694-19.694
								c10.86,0,19.694,8.835,19.694,19.694C189.633,198.804,180.798,207.639,169.938,207.639z M169.938,170.097
								c-9.841,0-17.847,8.006-17.847,17.847c0,9.841,8.006,17.847,17.847,17.847c9.841,0,17.847-8.006,17.847-17.847
								C187.785,178.103,179.779,170.097,169.938,170.097z"/>
						</g>
						<g>
							<path style="fill:#FFC35A;" d="M219.962,201.681c-10.86,0-19.694-8.835-19.694-19.695c0-10.859,8.835-19.694,19.694-19.694
								s19.694,8.835,19.694,19.694C239.656,192.846,230.821,201.681,219.962,201.681z M219.962,164.139
								c-9.841,0-17.847,8.006-17.847,17.847c0,9.841,8.006,17.847,17.847,17.847c9.841,0,17.847-8.006,17.847-17.847
								C237.809,172.146,229.802,164.139,219.962,164.139z"/>
						</g>
						<g>
							<g>
								<g>
									<path style="fill:#FFC35A;" d="M201.683,181.354c-4.548-3.504-11.318-2.241-13.841,3.57
										c-0.469,1.081,1.122,2.023,1.595,0.932c2.223-5.121,8.675-6.329,12.286-1.955
										C201.578,183.062,201.567,182.198,201.683,181.354z"/>
								</g>
							</g>
							<g>
								<g>
									<path style="fill:#FFC35A;" d="M152.174,184.073c-0.113-0.024-0.232-0.035-0.364-0.014
										c-10.238,1.629-20.377,4.182-30,8.075c-5.971,2.415-11.043,7.121-9.954,14.015c0.185,1.174,1.965,0.674,1.782-0.491
										c-1.547-9.794,11.078-12.846,18.057-15.066c6.554-2.085,13.287-3.563,20.071-4.663
										C151.842,185.261,151.93,184.681,152.174,184.073z"/>
								</g>
							</g>
						</g>
					</g>
					<g>
						<g>
							<g>
								<path style="fill:#FFFFFF;" d="M518.491,319.461c0.989,5.431,2.347,10.735,4.314,15.896
									c1.866,4.895,3.884,9.957,7.42,13.884c4.822,5.355,14.191,8.856,19.351,2.023c0.641-0.848-0.707-1.793-1.345-0.948
									c-6.362,8.425-17.302-0.991-20.439-7.547c-3.609-7.541-6.182-15.367-7.68-23.591
									C519.922,318.137,518.3,318.417,518.491,319.461L518.491,319.461z"/>
							</g>
							<path style="fill:#5534CE;" d="M550.785,352.003c-1.235,1.467-3.022,1.994-3.991,1.178c-0.97-0.816-0.754-2.667,0.481-4.134
								c1.235-1.467,3.022-1.994,3.991-1.178C552.235,348.686,552.02,350.537,550.785,352.003z"/>
						</g>
						<g>
							<g>
								<path style="fill:#FFFFFF;" d="M546.324,314.62c1.376,8.35,1.254,16.392,0.713,24.799
									c-0.473,7.341-8.063,19.656-16.705,13.988c-0.886-0.581-1.837,0.762-0.948,1.345c7.346,4.818,14.538-1.916,17.54-8.421
									c2.049-4.44,1.94-9.434,2.253-14.216c0.389-5.935-0.269-11.928-1.232-17.776
									C547.773,313.292,546.152,313.574,546.324,314.62L546.324,314.62z"/>
							</g>
							<path style="fill:#5534CE;" d="M528.693,356.003c1.657,0.965,3.517,0.86,4.155-0.235c0.638-1.095-0.188-2.765-1.845-3.73
								c-1.657-0.965-3.517-0.86-4.155,0.235C526.211,353.368,527.036,355.038,528.693,356.003z"/>
						</g>
						<g>
							<path style="fill:#5534CE;" d="M521.381,322.059l-3.013-17.373c-1.255-7.237,2.88-14.312,9.534-15.748
								c6.996-1.509,13.871,3.584,15.178,11.125l3.07,17.701c0.136,0.786,0.837,1.32,1.564,1.194l0,0
								c0.728-0.126,1.208-0.865,1.071-1.651l-3.001-17.302c-1.522-8.778-9.133-15.169-17.319-14.091
								c-8.606,1.133-14.377,9.758-12.79,18.903l3.07,17.701c0.136,0.785,0.837,1.32,1.565,1.194l0,0
								C521.038,323.583,521.517,322.844,521.381,322.059z"/>
						</g>
					</g>
					<g>
						<g>
							<path style="fill:#8C4646;" d="M320.852,196.067c-0.078-0.049-0.466,0.488-1.177,1.414c-0.359,0.458-0.81,1.008-1.409,1.54
								c-0.603,0.53-1.363,1.024-2.311,1.198c-0.926,0.185-2.066,0.05-2.786-0.676c-0.758-0.718-0.885-1.961-0.639-3.246
								c0.234-1.281,0.769-2.671,1.187-4.144c0.429-1.465,0.855-2.988,1.236-4.563c1.561-6.291,2.313-12.127,2.606-16.354
								c0.298-4.231,0.176-6.855,0.024-6.859c-0.186-0.007-0.371,2.6-0.887,6.776c-0.512,4.174-1.391,9.922-2.934,16.144
								c-0.377,1.557-0.79,3.066-1.199,4.52c-0.21,0.716-0.418,1.427-0.625,2.135c-0.214,0.71-0.409,1.426-0.523,2.158
								c-0.116,0.728-0.149,1.482-0.004,2.222c0.144,0.741,0.512,1.446,1.053,1.943c1.121,1.022,2.592,1.062,3.678,0.791
								c1.134-0.271,1.998-0.927,2.597-1.548c0.61-0.633,1.021-1.254,1.33-1.767C320.675,196.717,320.918,196.108,320.852,196.067z"
								/>
						</g>
						<g>
							<path style="fill:#8C4646;" d="M325.373,201.956c-0.187-0.058-0.536,0.95-1.541,2.236c-0.978,1.277-2.755,2.813-5.12,3.389
								c-2.368,0.563-4.65,0.005-6.102-0.687c-1.481-0.688-2.25-1.426-2.39-1.289c-0.111,0.085,0.453,1.081,1.975,2.051
								c1.479,0.963,4.049,1.772,6.804,1.118c2.751-0.672,4.671-2.562,5.55-4.093C325.462,203.124,325.511,201.981,325.373,201.956z
								"/>
						</g>
						<g>
							<path style="fill:#8C4646;" d="M297.648,190.934c0.442,0,0.8-3.205,0.8-7.159c0-3.954-0.358-7.159-0.8-7.159
								c-0.442,0-0.8,3.205-0.8,7.159C296.848,187.729,297.206,190.934,297.648,190.934z"/>
						</g>
						<g>
							<ellipse style="fill:#8C4646;" cx="335.9" cy="183.144" rx="0.8" ry="6.909"/>
						</g>
						<g>
							<path style="fill:#8C4646;" d="M304.799,156.323c0.058-0.191-0.872-0.713-2.546-1.042c-1.663-0.334-4.08-0.374-6.611,0.308
								c-2.529,0.69-4.595,1.945-5.862,3.072c-1.278,1.129-1.818,2.049-1.671,2.185c0.173,0.167,0.985-0.449,2.341-1.272
								c1.353-0.829,3.303-1.808,5.611-2.44c2.311-0.62,4.489-0.759,6.075-0.727C303.723,156.433,304.735,156.554,304.799,156.323z"
								/>
						</g>
						<g>
							<path style="fill:#8C4646;" d="M348.656,163.7c0.173-0.089-0.116-1.157-1.144-2.594c-0.507-0.721-1.228-1.495-2.119-2.254
								c-0.906-0.739-1.991-1.45-3.22-2.018c-1.236-0.552-2.486-0.901-3.638-1.098c-1.158-0.172-2.215-0.206-3.091-0.113
								c-1.759,0.171-2.754,0.656-2.707,0.845c0.051,0.24,1.097,0.163,2.716,0.287c0.811,0.053,1.764,0.199,2.799,0.429
								c1.031,0.255,2.142,0.61,3.259,1.107c1.11,0.514,2.108,1.118,2.978,1.727c0.855,0.628,1.591,1.25,2.164,1.826
								C347.812,162.981,348.442,163.819,348.656,163.7z"/>
						</g>
					</g>
					<g>
						<path style="fill:#79CCBC;" d="M404.521,321.758c0,0-3.372-12.47-16.132-36.766c-12.326-23.469-36.34-30.08-49.728-31.055
							c-4.943,6.249-12.484,10.491-20.457,11.025c-9.091,0.609-18.277-3.623-24.017-10.654c-6.72,1.122-16.861,3.285-24.881,7.036
							c-8.511,3.982-19.291,21.082-25.859,32.695c0.433,0.42,0.839,0.907,1.2,1.485c8.578,13.724,17.609,27.1,28.929,38.739
							c5.179,5.325-0.283,12.9-5.998,12.329c-1.634,1.437-3.829,2.234-6.03,1.846l-9.555,56.554c0,0,72.606,31.131,126.139-0.322
							l-15.666-67.681C385.493,335.31,404.521,321.758,404.521,321.758z"/>
					</g>
					<g>
						<path style="fill:#4DA090;" d="M344.942,254.623c-2.303-0.334-4.431-0.552-6.281-0.687
							c-4.943,6.249-12.484,10.491-20.457,11.025c-9.091,0.609-18.277-3.623-24.017-10.654c-1.302,0.217-2.735,0.475-4.254,0.775
							c3.125,7.632,9.83,13.843,17.778,16.262c10.316,3.139,22.118,0.065,30.056-7.233
							C340.711,261.405,343.116,258.169,344.942,254.623z"/>
					</g>
					<g>
						<g>
							<path style="fill:#FFFFFF;" d="M267.867,324.14c0.181-0.021,0.002-2.636-0.213-6.856c-0.218-4.22-0.421-10.051-0.324-16.491
								c0.104-6.44,0.489-12.261,0.838-16.472c0.347-4.211,0.607-6.819,0.427-6.846c-0.155-0.023-0.719,2.544-1.29,6.753
								c-0.572,4.207-1.098,10.061-1.202,16.546c-0.098,6.485,0.245,12.353,0.686,16.576
								C267.227,321.574,267.711,324.159,267.867,324.14z"/>
						</g>
						<g>
							<path style="fill:#FFFFFF;" d="M267.213,295.185c0.334-0.127-0.621-3.233-1.171-7.158c-0.577-3.921-0.536-7.169-0.892-7.198
								c-0.318-0.042-0.921,3.287-0.323,7.372C265.404,292.29,266.92,295.315,267.213,295.185z"/>
						</g>
						<g>
							<path style="fill:#FFFFFF;" d="M366.76,263.043c-0.238,0.159-0.484,0.334-0.743,0.549c-1.664,1.222-3.875,3.373-5.734,6.616
								c-1.897,3.213-3.352,7.474-4.16,12.301c-0.817,4.831-1.134,10.21-0.889,15.847c0.276,5.632,1.064,10.943,1.947,15.722
								c0.88,4.783,1.833,9.049,2.633,12.628c0.7,3.095,1.334,5.897,1.916,8.47c0.451,2,0.731,3.102,0.816,3.087
								c0.082-0.014-0.04-1.145-0.347-3.177c-0.316-2.029-0.838-4.955-1.536-8.557c-0.691-3.602-1.555-7.881-2.368-12.648
								c-0.818-4.765-1.562-10.03-1.834-15.582c-0.469-11.071,1.03-21.327,4.581-27.667c1.703-3.191,3.741-5.36,5.278-6.67
								c0.244-0.234,0.475-0.427,0.698-0.606C366.929,263.253,366.841,263.151,366.76,263.043z"/>
						</g>
					</g>
					<g>
						<g>
							<path style="fill:#773737;" d="M527.264,215.445c0.146-0.001,0.344-1.557-0.013-4.066c-0.191-1.248-0.539-2.735-1.206-4.295
								c-0.659-1.56-1.672-3.179-3.069-4.583c-1.401-1.396-3.059-2.417-4.714-2.933c-1.653-0.524-3.239-0.571-4.518-0.384
								c-2.602,0.406-3.818,1.622-3.722,1.705c0.098,0.186,1.425-0.694,3.812-0.842c1.18-0.066,2.607,0.068,4.067,0.592
								c1.458,0.516,2.931,1.458,4.209,2.73c2.586,2.574,3.724,5.837,4.29,8.176C526.958,213.915,527.074,215.454,527.264,215.445z"
								/>
						</g>
						<g>
							<path style="fill:#773737;" d="M520.53,213.476c0.136-0.128-0.277-0.693-0.602-1.688c-0.332-0.976-0.52-2.459,0.014-3.888
								c0.544-1.426,1.665-2.414,2.559-2.927c0.901-0.532,1.585-0.684,1.567-0.87c-0.001-0.148-0.766-0.318-1.928,0.081
								c-1.135,0.377-2.648,1.459-3.346,3.283c-0.681,1.83-0.262,3.642,0.341,4.675C519.745,213.209,520.432,213.587,520.53,213.476
								z"/>
						</g>
						<g>
							<path style="fill:#773737;" d="M571.57,198.375c-0.004,0.059,0.549,0.182,1.465-0.162c0.906-0.326,2.11-1.233,2.899-2.798
								c0.829-1.567,0.975-3.736,0.623-5.92c-0.359-2.2-0.958-4.476-1.51-6.92c-1.145-4.864-2.249-9.252-3.108-12.415
								c-0.859-3.162-1.472-5.099-1.637-5.06c-0.165,0.039,0.15,2.046,0.793,5.259c0.643,3.213,1.613,7.633,2.758,12.497
								c0.549,2.429,1.192,4.756,1.589,6.822c0.39,2.065,0.33,3.968-0.293,5.37c-0.601,1.423-1.565,2.316-2.316,2.733
								C572.076,198.217,571.556,198.268,571.57,198.375z"/>
						</g>
						<g>
							<path style="fill:#773737;" d="M552.485,190.242c0.336-0.04,0.253-3.087-0.186-6.807c-0.44-3.719-1.069-6.702-1.405-6.663
								c-0.336,0.04-0.253,3.087,0.186,6.807C551.52,187.298,552.149,190.281,552.485,190.242z"/>
						</g>
						<g>
							<path style="fill:#773737;" d="M592.2,185.816c0.337-0.032,0.311-3.222-0.059-7.126c-0.37-3.904-0.943-7.042-1.281-7.01
								c-0.337,0.032-0.311,3.222,0.059,7.126C591.289,182.71,591.863,185.848,592.2,185.816z"/>
						</g>
						<g>
							<path style="fill:#773737;" d="M553.593,159.779c0.028-0.151-0.743-0.474-2.075-0.604c-1.325-0.134-3.212-0.003-5.155,0.668
								c-1.941,0.678-3.503,1.744-4.459,2.671c-0.964,0.928-1.369,1.659-1.253,1.76c0.264,0.254,2.5-2.054,6.115-3.272
								C550.358,159.717,553.544,160.141,553.593,159.779z"/>
						</g>
						<g>
							<path style="fill:#773737;" d="M595.435,158.883c0.114-0.095-0.329-0.905-1.423-1.899c-1.082-0.993-2.875-2.089-5.077-2.649
								c-2.204-0.552-4.302-0.438-5.726-0.077c-1.434,0.356-2.209,0.859-2.154,0.997c0.065,0.177,0.924-0.022,2.294-0.14
								c1.369-0.124,3.269-0.092,5.285,0.411c2.013,0.514,3.701,1.388,4.847,2.146C594.632,158.425,595.294,159.008,595.435,158.883
								z"/>
						</g>
					</g>
					<path style="fill:#FFFFFF;" d="M562.709,204.335c1.336,3.218,4.68,5.503,8.604,5.503c3.556,0,6.637-1.876,8.179-4.621
						C573.833,205.822,568.101,205.593,562.709,204.335z"/>
					<path style="fill:#5691F6;" d="M576.21,335.418c0,0,19.32-34.369,11.552-82.719c-3.311-0.476-6.113-0.667-7.951-0.741
						c-0.177-0.007-0.346-0.038-0.51-0.082c-3.864,5.01-9.998,8.305-16.348,8.416c-5.781,0.102-11.478-2.439-15.5-6.57
						c-0.322,0.14-0.676,0.216-1.051,0.191c-2.116-0.14-5.529-0.206-9.602,0.284C538.321,270.374,545.46,320.444,576.21,335.418z"/>
					<g>
						<path style="fill:#3F245A;" d="M578.43,258.233c-0.53-1.181-1.375-2.171-2.39-2.97c-3.658,3.061-8.311,4.946-13.087,5.03
							c-4.67,0.082-9.285-1.562-13.007-4.374c-1.73,0.865-3.324,1.96-4.698,3.372l5.529,6.023c1.115,4.021,3.206,7.896,6.523,10.427
							s7.984,3.502,11.789,1.789c3.269-1.472,5.453-4.599,7.235-7.71C578.352,266.277,580.1,261.956,578.43,258.233z"/>
					</g>
					<path style="fill:#3F245A;" d="M576.21,335.418c0,0,3.253-5.796,6.553-15.962l-13.746-44.605l-5.815,0.113l-1.837,48.871
						C565.572,328.617,570.48,332.628,576.21,335.418z"/>
					<g>
						<path style="fill:#FFFFFF;" d="M632.723,326.49c0.173,0.023,0.641-2.443,1.347-6.431c0.704-3.989,1.667-9.496,2.815-15.564
							c1.151-6.067,2.271-11.545,3.075-15.515c0.803-3.97,1.269-6.436,1.1-6.478c-0.159-0.04-0.924,2.355-1.945,6.283
							c-1.022,3.928-2.28,9.395-3.435,15.481c-1.152,6.087-1.982,11.635-2.468,15.665C632.725,323.96,632.56,326.468,632.723,326.49
							z"/>
					</g>
					<g>
						<path style="fill:#FFFFFF;" d="M631.828,315.7c0.366,0.005,0.521-3.476,1.964-7.432c1.397-3.972,3.489-6.759,3.203-6.988
							c-0.122-0.101-0.816,0.473-1.698,1.616c-0.882,1.139-1.911,2.876-2.66,4.958c-0.744,2.084-1.052,4.08-1.094,5.519
							C631.497,314.816,631.669,315.7,631.828,315.7z"/>
					</g>
					<g>
						<path style="fill:#FFFFFF;" d="M612.029,335.055c0.084,0.007,0.228-0.852,0.415-2.413c0.193-1.561,0.399-3.825,0.595-6.629
							c0.396-5.606,0.669-13.376,0.479-21.955c-0.197-8.579-0.819-16.328-1.466-21.911c-0.322-2.792-0.63-5.045-0.893-6.595
							c-0.257-1.551-0.439-2.403-0.523-2.392c-0.181,0.023,0.13,3.481,0.552,9.069c0.425,5.588,0.907,13.313,1.103,21.857
							c0.189,8.544,0.054,16.283-0.119,21.884C612.003,331.572,611.848,335.04,612.029,335.055z"/>
					</g>
					<path style="fill:#FFFFFF;" d="M673.367,270.707c-10.076-2.289-19.338-4.39-26.691-6.017l-0.469,1.609
						c7.303,1.911,16.566,4.189,26.687,6.489c6.077,1.379,11.872,2.632,17.139,3.723c0.118-0.685,0.227-1.329,0.328-1.935
						C685.147,273.382,679.403,272.077,673.367,270.707z"/>
					<g>
						<path style="fill:#292D41;" d="M535.078,249.881c-1.908,1.692-3.664,3.576-5.211,5.67c-8.064,10.914-6.64,25.936-4.699,38.51
							c0.272,1.762,2.942,1.011,2.672-0.737c-1.831-11.861-2.79-24.498,3.64-35.208c1.768-2.946,4.054-5.406,6.666-7.453
							C536.97,250.613,535.948,250.333,535.078,249.881z"/>
						<path style="fill:#292D41;" d="M597.28,251.615c-1.946-2.074-4.234-3.805-6.729-5.266c-1.913,0.113-3.824,0.257-5.733,0.424
							c3.908,1.703,7.512,3.946,10.503,6.801c9.239,8.82,9.207,23.304,9.244,35.087c0.005,1.787,2.777,1.787,2.771,0
							C607.295,275.555,606.75,261.712,597.28,251.615z"/>
					</g>
					<g>
						<path style="fill:#FFC35A;" d="M310.669,320.156l-24.796,1.374c-2.442,0.135-4.531-1.735-4.666-4.177l-1.837-33.161
							c-0.135-2.442,1.735-4.531,4.177-4.666l24.796-1.374c2.442-0.135,4.531,1.735,4.666,4.177l1.837,33.161
							C314.981,317.932,313.111,320.021,310.669,320.156z"/>
						<path style="fill:#3F245A;" d="M343.587,396.86l-81.958,4.54c-2.021,0.112-3.75-1.436-3.862-3.457l-5.77-104.159
							c-0.112-2.021,1.436-3.75,3.457-3.862l81.958-4.54c2.021-0.112,3.75,1.436,3.862,3.457l5.77,104.159
							C347.156,395.019,345.608,396.748,343.587,396.86z"/>
					</g>
					<path style="fill:#CC7976;" d="M367.531,339.744l2.189,12.579l-67.022,1.055l-1.484,30.81c0,0,80.474,30.354,106.169-0.994
						c0,0,9.954-14.513-4.539-50.867C391.638,337.124,379.538,340.372,367.531,339.744z"/>
					<g>
						<g>
							<path style="fill:#9E525F;" d="M388.746,355.906c0.027-0.137-2.533-0.799-6.735-1.572c-4.2-0.775-10.051-1.621-16.555-2.132
								c-6.524-0.512-12.438-0.317-16.697-0.151c-4.262,0.187-6.893,0.378-6.891,0.523c0.002,0.15,2.644,0.225,6.906,0.231
								c4.26,0.026,10.145-0.047,16.599,0.46c6.469,0.508,12.303,1.231,16.519,1.813
								C386.109,355.658,388.716,356.058,388.746,355.906z"/>
						</g>
						<g>
							<path style="fill:#9E525F;" d="M384.237,350.652c0.034-0.129-0.892-0.533-2.487-0.849c-1.59-0.319-3.858-0.491-6.332-0.191
								c-2.473,0.306-4.633,1.021-6.098,1.714c-1.471,0.692-2.272,1.307-2.208,1.425c0.145,0.293,3.677-1.527,8.436-2.08
								C380.3,350.059,384.168,350.972,384.237,350.652z"/>
						</g>
					</g>
					<g style="opacity:0.21;">
						<path style="fill:#DE8691;" d="M295.706,122.143c-5.521-0.525-17.501,1.434-16.736,9.162
							c0.678,6.854,9.397,9.848,14.841,11.628c4.055,1.326,8.379,1.87,12.635,1.543c1.17-0.09,11.195-1.581,11.068-3.051
							c0.646,7.517,6.44,14.072,13.559,16.569s15.231,1.255,21.844-2.375c-2.974,7.629-2.194,16.622,2.05,23.625
							c1.804,2.977,4.876,5.852,8.297,5.211c3.631-0.68,5.367-4.791,6.305-8.365c2.566-9.776,3.745-20.325,0.423-29.871
							c-3.322-9.546-12.071-17.726-22.178-17.818c-5.918-0.053-11.573,2.551-17.482,2.876c-5.999,0.33-11.858-1.7-17.445-3.909
							C307.3,125.158,301.686,122.712,295.706,122.143z"/>
					</g>
					<g>
						<path style="fill:#722E44;" d="M277.55,126.905c0.622,5.608,6.725,8.78,12.2,10.146c11.329,2.827,23.501,2.181,34.468-1.829
							c-1.474,4.292,2.227,8.699,6.256,10.788c8.53,4.424,18.765,3.187,28.279,1.838c-3.546,9.533-3.883,20.228-0.945,29.965
							c0.538,1.784,1.216,3.591,2.504,4.938c1.288,1.346,3.326,2.128,5.066,1.463c1.826-0.698,2.776-2.674,3.473-4.5
							c4.077-10.69,5.461-22.622,2.485-33.67s-10.626-21.048-21.14-25.56c-8.361-3.588-17.764-3.573-26.862-3.499
							c-14.489,0.117-29.443,0.329-42.709,6.154"/>
					</g>
					<g>
						<g>
							<path style="fill:#9E525F;" d="M465.657,342.233c-0.005-0.051-0.517-0.055-1.439-0.016c-0.923,0.037-2.255,0.121-3.9,0.253
								c-3.289,0.263-7.83,0.723-12.81,1.519c-4.979,0.801-9.436,1.839-12.608,2.765c-1.587,0.461-2.86,0.871-3.727,1.193
								c-0.868,0.317-1.34,0.515-1.324,0.564c0.036,0.111,1.994-0.46,5.187-1.247c3.192-0.792,7.636-1.741,12.591-2.538
								c4.956-0.793,9.473-1.334,12.744-1.731c1.224-0.154,2.515-0.317,3.873-0.489
								C465.158,342.379,465.662,342.285,465.657,342.233z"/>
						</g>
						<g>
							<path style="fill:#9E525F;" d="M438.17,346.226c0.086-0.174-1.555-1.038-3.796-1.141c-2.24-0.119-3.959,0.58-3.89,0.761
								c0.057,0.211,1.758-0.13,3.854-0.015C436.434,345.923,438.093,346.43,438.17,346.226z"/>
						</g>
					</g>
					<g>
						<path style="fill:#3F7DD8;" d="M543.941,276.574l18.013-16.293c-5.433-0.188-10.711-2.666-14.501-6.559
							c-0.322,0.14-0.676,0.216-1.051,0.191c-1.798-0.119-4.539-0.181-7.82,0.103C539.038,258.728,540.354,268.268,543.941,276.574z
							"/>
						<path style="fill:#3F7DD8;" d="M562.555,260.288l21.026,13.79c2.261-7.979,2.095-16.681,1.719-21.694
							c-2.235-0.252-4.128-0.371-5.49-0.426c-0.177-0.007-0.346-0.038-0.51-0.082c-3.864,5.01-9.998,8.305-16.348,8.416
							C562.82,260.295,562.688,260.289,562.555,260.288z"/>
					</g>
					<g>
						<circle style="fill:#3F245A;" cx="605.369" cy="287.147" r="12.182"/>
						<circle style="fill:#5534CE;" cx="605.369" cy="287.147" r="6.099"/>
					</g>
					<g style="opacity:0.21;">
						<path style="fill:#DE8691;" d="M514.017,193.915c8.955-1.117,16.456-9.394,16.69-18.415c0.072-2.791-0.468-5.567-0.448-8.359
							c0.022-3.025,0.701-6.015,0.729-9.04c0.028-3.024-0.73-6.273-3.014-8.256c6.102-0.786,11.763-4.489,14.93-9.764
							c7.637,4.918,18.498,4.108,25.322-1.887c0.294-0.258,5.48,1.069,6.406,1.092c2.38,0.058,4.721-0.343,6.94-1.207
							c3.28-1.278,8.508-4.206,5.733-8.42c-2.347-3.565-10.824-3.439-14.65-4.182c-5.977-1.161-11.973-2.277-18.042-2.832
							c-10.981-1.005-22.526-0.044-32.12,5.391"/>
					</g>
					<g>
						<path style="fill:#592E2E;" d="M511.763,193.394c5.834,2.214,9.742-3.665,11.988-7.994c2.065-3.979,2.68-8.777,1.246-13.067
							c-0.703-2.102-1.833-4.119-1.924-6.334c-0.062-1.521,0.375-3.012,0.602-4.518c0.827-5.482-1.342-11.322-5.546-14.936
							c8.47,1.517,17.641-3.91,20.388-12.064c7.377,5.273,20.779,5.015,27.255-1.759c6.801,3.851,15.597,3.909,22.448,0.149
							c1.128-0.619,2.309-1.488,2.486-2.763c0.229-1.639-1.29-2.959-2.717-3.798c-2.967-1.744-6.772-3.464-10.289-3.376
							c-2.939,0.074-5.493,1.081-8.522,0.869c-9.331-0.652-18.653-1.733-27.967-2.598c-6.809-0.632-13.915-1.226-20.274,1.288
							c-5.182,2.048-9.425,6.035-12.603,10.611c-3.159,4.549-5.375,9.748-6.47,15.177c-1.502,7.445-0.886,15.212,0.986,22.573
							c1.317,5.178,3.25,10.2,5.745,14.924"/>
					</g>
					<g>
						<g>
							<path style="fill:#FFC35A;" d="M547.898,201.241c-10.635,0-19.288-8.653-19.288-19.288s8.653-19.288,19.288-19.288
								c10.636,0,19.289,8.653,19.289,19.288S558.534,201.241,547.898,201.241z M547.898,164.511
								c-9.617,0-17.441,7.824-17.441,17.441s7.824,17.441,17.441,17.441s17.442-7.824,17.442-17.441
								S557.515,164.511,547.898,164.511z"/>
						</g>
						<g>
							<path style="fill:#FFC35A;" d="M598.406,196.047c-10.636,0-19.289-8.653-19.289-19.288c0-10.636,8.653-19.289,19.289-19.289
								c10.635,0,19.288,8.653,19.288,19.289C617.695,187.394,609.042,196.047,598.406,196.047z M598.406,159.317
								c-9.617,0-17.442,7.824-17.442,17.441c0,9.617,7.825,17.441,17.442,17.441s17.441-7.824,17.441-17.441
								C615.847,167.141,608.023,159.317,598.406,159.317z"/>
						</g>
						<g>
							<g>
								<path style="fill:#FFC35A;" d="M579.899,177.752c0.054-0.402,0.108-0.804,0.162-1.206
									c-4.573-3.876-11.511-2.997-14.777,2.633c-0.599,1.033,0.998,1.962,1.595,0.932c2.926-5.045,9.588-5.574,13.173-0.95
									C579.962,178.703,579.9,178.236,579.899,177.752z"/>
							</g>
						</g>
						<g>
							<g>
								<path style="fill:#FFC35A;" d="M529.147,180.506c-8.781,2.917-17.497,6.068-26.035,9.64
									c-6.351,2.657-7.534,7.285-6.701,13.731c0.151,1.164,2,1.179,1.848,0c-0.431-3.334-0.847-6.612,1.461-9.479
									c2.162-2.686,6.918-3.721,9.989-4.931c6.57-2.589,13.228-4.953,19.929-7.179
									C530.763,181.914,530.281,180.129,529.147,180.506L529.147,180.506z"/>
							</g>
						</g>
					</g>
					<g>
						<path style="fill:#CC7976;" d="M321.779,353.153c-4.701,0.21-9.431,0.369-14.138,0.267c-4.26-0.092-8.529-1.423-12.689-2.353
							c-3.525-0.788-7.129-1.392-10.75-1.391c-1.037,0-9.499,0.236-7.143,2.993c0.586,0.686,1.586,0.798,2.486,0.862
							c3.803,0.27,7.607,0.54,11.41,0.809c-6.633,0.487-13.401,1.006-19.534,3.578c-1.9,0.797-3.981,2.193-3.962,4.253
							c8.789,0.067,17.369-4.727,26.021-3.184c-8.5,0.755-16.848,3.193-24.419,7.132c-0.758,0.395-1.544,0.836-1.989,1.567
							c-0.445,0.73-0.396,1.832,0.326,2.29c0.54,0.343,1.24,0.225,1.866,0.095c7.946-1.645,15.893-3.29,23.839-4.935
							c-3.905,1.932-8.188,2.941-12.325,4.308c-4.137,1.367-8.275,3.185-11.265,6.354c-0.711,0.754-1.382,1.851-0.887,2.761
							c0.615,1.13,2.298,0.828,3.494,0.355c7.521-2.972,15.23-6.537,23.292-5.905c-5.283,2.446-10.618,4.922-15.219,8.488
							c-0.947,0.734-1.959,1.875-1.486,2.976c0.324,0.753,1.253,1.084,2.068,0.996c0.815-0.088,1.554-0.496,2.293-0.85
							c4.066-1.948,8.824-2.41,13.189-1.283c5.019,1.297,9.306,4.21,14.414,5.418c5.419,1.281,11.044,1.692,16.591,1.192"/>
					</g>
				</g>
			</g>
			<g>
				<path style="fill:#DE8691;" d="M98.581,400.532c-2.408,6.971-0.574,14.612,1.247,21.759c1.821,7.147,3.597,14.816,1.087,21.752
					c-0.43,1.188-0.99,2.393-0.877,3.651c0.113,1.258,1.248,2.533,2.476,2.238c0.817-0.196,1.34-0.976,1.754-1.706
					c4.137-7.286,5.671-16.017,4.265-24.277c1.971,9.571,1.27,19.678-2.005,28.885c-0.323,0.908-0.676,1.845-0.592,2.804
					c0.083,0.96,0.753,1.947,1.712,2.037c1.072,0.1,1.906-0.885,2.476-1.799c5.545-8.906,5.414-20.084,5.107-30.571
					c1.344,9.341,1.051,18.915-0.861,28.156c-0.197,0.954-0.413,1.933-0.246,2.893c0.167,0.959,0.821,1.906,1.776,2.097
					c1.5,0.299,2.664-1.266,3.308-2.654c4.325-9.328,4.289-20.006,4.173-30.287c0.215,9.784,0.43,19.569,0.645,29.353
					c0.02,0.904,0.165,2.004,1,2.353c0.971,0.405,1.938-0.566,2.492-1.461c3.561-5.754,3.717-12.107,4.126-18.627
					c0.48-7.656,0.26-15.356-0.66-22.971c-0.688-5.695-1.648-11.954,1.472-16.768"/>
			</g>
			<path style="fill:#EED9E7;" d="M125.813,265.427c0,0-12.351-1.274-23.121,48.704c-10.769,49.978-9.889,104.314-9.889,104.314
				s16.628,8.284,42.235-0.727l5.339-85.213c0.231-3.688,0.675-7.354,1.344-10.988C144.184,308.139,149.1,269.861,125.813,265.427z"
				/>
			<g>
				<path style="fill:#FFFFFF;" d="M135.551,408.009c0.121,0,0.202-2.095,0.361-5.876c0.154-3.782,0.395-9.252,0.861-16
					c0.456-6.749,1.163-14.773,2.103-23.669c0.916-8.901,2.167-18.655,3.258-28.95c1.066-10.292,1.693-20.176,1.415-29.177
					c-0.048-1.123-0.095-2.233-0.142-3.33c-0.074-1.093-0.148-2.172-0.221-3.238c-0.101-1.06-0.201-2.107-0.299-3.139
					c-0.154-1.034-0.244-2.06-0.459-3.049c-0.736-3.975-1.93-7.578-3.444-10.664c-2.999-6.208-7.081-10.288-10.285-12.361
					c-0.39-0.255-0.768-0.502-1.134-0.742c-0.368-0.211-0.724-0.389-1.049-0.563c-0.647-0.352-1.204-0.627-1.682-0.793
					c-0.936-0.368-1.433-0.534-1.454-0.483c-0.074,0.159,1.936,0.868,4.957,3.088c3.019,2.179,6.838,6.248,9.622,12.335
					c1.406,3.026,2.503,6.547,3.161,10.411c0.195,0.961,0.267,1.958,0.405,2.961c0.084,1.021,0.17,2.056,0.257,3.105
					c0.06,1.055,0.121,2.123,0.183,3.204c0.036,1.086,0.072,2.185,0.109,3.296c0.194,8.911-0.47,18.715-1.533,28.975
					c-1.088,10.259-2.297,20.043-3.134,28.966c-0.861,8.921-1.453,16.977-1.765,23.752c-0.322,6.774-0.392,12.264-0.354,16.055
					c0.01,1.896,0.061,3.368,0.108,4.365C135.444,407.485,135.496,408.009,135.551,408.009z"/>
			</g>
		</g>
	</g>
</g>
</svg>
