<svg width="233" height="56" viewBox="0 0 233 56" fill="none" xmlns="http://www.w3.org/2000/svg">
<path d="M46.9506 16.7421H38.4127C33.3704 16.7421 21.9975 14.191 25.3589 0.081543C23.26 0.912057 21.4592 2.35425 20.1901 4.22097C18.9211 6.08768 18.2424 8.29273 18.2422 10.55V14.6779C18.2422 15.4003 18.2667 16.1069 18.3158 16.7978C29.0665 17.5172 39.7083 25.1734 40.6852 39.2021C41.2408 39.24 41.797 39.259 42.3537 39.259H46.9506C49.9365 39.259 52.8 38.0729 54.9113 35.9616C57.0226 33.8503 58.2087 30.9868 58.2087 28.0009C58.2087 25.0151 57.0226 22.1516 54.9113 20.0403C52.8 17.929 49.9365 16.7429 46.9506 16.7429V16.7421Z" fill="#5E01BA"/>
<path d="M16.6473 16.7422H12.05C9.06421 16.7422 6.20069 17.9283 4.08939 20.0396C1.9781 22.1509 0.791992 25.0144 0.791992 28.0002C0.791992 30.986 1.9781 33.8496 4.08939 35.9609C6.20069 38.0721 9.06421 39.2583 12.05 39.2583H20.5876C25.6294 39.2583 37.0023 41.8093 33.6415 55.9193C35.7402 55.0886 37.5409 53.6463 38.8099 51.7795C40.0788 49.9128 40.7575 47.7078 40.7579 45.4506V41.3221C40.7579 25.1863 28.4687 16.7422 16.6473 16.7422Z" fill="#019BBA"/>
<path d="M75.793 41.0005V14.4005H84.875C87.991 14.4005 90.5497 14.9578 92.551 16.0725C94.5777 17.1618 96.0723 18.7072 97.035 20.7085C98.023 22.6845 98.517 25.0152 98.517 27.7005C98.517 30.3858 98.023 32.7292 97.035 34.7305C96.0723 36.7065 94.5777 38.2518 92.551 39.3665C90.5497 40.4558 87.991 41.0005 84.875 41.0005H75.793ZM80.657 36.8205H84.647C86.8763 36.8205 88.637 36.4658 89.929 35.7565C91.221 35.0218 92.1457 33.9832 92.703 32.6405C93.2603 31.2725 93.539 29.6258 93.539 27.7005C93.539 25.8005 93.2603 24.1665 92.703 22.7985C92.1457 21.4305 91.221 20.3792 89.929 19.6445C88.637 18.9098 86.8763 18.5425 84.647 18.5425H80.657V36.8205ZM111.739 41.4565C109.915 41.4565 108.268 41.0385 106.799 40.2025C105.355 39.3665 104.202 38.2138 103.341 36.7445C102.505 35.2498 102.087 33.5272 102.087 31.5765C102.087 29.6258 102.517 27.9158 103.379 26.4465C104.24 24.9518 105.393 23.7865 106.837 22.9505C108.306 22.1145 109.953 21.6965 111.777 21.6965C113.575 21.6965 115.197 22.1145 116.641 22.9505C118.11 23.7865 119.263 24.9518 120.099 26.4465C120.96 27.9158 121.391 29.6258 121.391 31.5765C121.391 33.5272 120.96 35.2498 120.099 36.7445C119.263 38.2138 118.11 39.3665 116.641 40.2025C115.171 41.0385 113.537 41.4565 111.739 41.4565ZM111.739 37.2385C113.005 37.2385 114.107 36.7698 115.045 35.8325C115.982 34.8698 116.451 33.4512 116.451 31.5765C116.451 29.7018 115.982 28.2958 115.045 27.3585C114.107 26.3958 113.018 25.9145 111.777 25.9145C110.485 25.9145 109.37 26.3958 108.433 27.3585C107.521 28.2958 107.065 29.7018 107.065 31.5765C107.065 33.4512 107.521 34.8698 108.433 35.8325C109.37 36.7698 110.472 37.2385 111.739 37.2385ZM134.974 41.4565C133.048 41.4565 131.351 41.0385 129.882 40.2025C128.412 39.3665 127.247 38.2012 126.386 36.7065C125.55 35.2118 125.132 33.5018 125.132 31.5765C125.132 29.6512 125.55 27.9412 126.386 26.4465C127.247 24.9518 128.412 23.7865 129.882 22.9505C131.351 22.1145 133.048 21.6965 134.974 21.6965C137.38 21.6965 139.407 22.3298 141.054 23.5965C142.7 24.8378 143.752 26.5605 144.208 28.7645H139.078C138.824 27.8525 138.318 27.1432 137.558 26.6365C136.823 26.1045 135.949 25.8385 134.936 25.8385C133.593 25.8385 132.453 26.3452 131.516 27.3585C130.578 28.3718 130.11 29.7778 130.11 31.5765C130.11 33.3752 130.578 34.7812 131.516 35.7945C132.453 36.8078 133.593 37.3145 134.936 37.3145C135.949 37.3145 136.823 37.0612 137.558 36.5545C138.318 36.0478 138.824 35.3258 139.078 34.3885H144.208C143.752 36.5165 142.7 38.2265 141.054 39.5185C139.407 40.8105 137.38 41.4565 134.974 41.4565ZM156.663 41.0005C154.687 41.0005 153.104 40.5192 151.913 39.5565C150.722 38.5938 150.127 36.8838 150.127 34.4265V26.2185H146.897V22.1525H150.127L150.697 17.0985H154.991V22.1525H160.083V26.2185H154.991V34.4645C154.991 35.3765 155.181 36.0098 155.561 36.3645C155.966 36.6938 156.65 36.8585 157.613 36.8585H159.969V41.0005H156.663ZM172.821 41.4565C170.997 41.4565 169.35 41.0385 167.881 40.2025C166.437 39.3665 165.284 38.2138 164.423 36.7445C163.587 35.2498 163.169 33.5272 163.169 31.5765C163.169 29.6258 163.599 27.9158 164.461 26.4465C165.322 24.9518 166.475 23.7865 167.919 22.9505C169.388 22.1145 171.035 21.6965 172.859 21.6965C174.657 21.6965 176.279 22.1145 177.723 22.9505C179.192 23.7865 180.345 24.9518 181.181 26.4465C182.042 27.9158 182.473 29.6258 182.473 31.5765C182.473 33.5272 182.042 35.2498 181.181 36.7445C180.345 38.2138 179.192 39.3665 177.723 40.2025C176.253 41.0385 174.619 41.4565 172.821 41.4565ZM172.821 37.2385C174.087 37.2385 175.189 36.7698 176.127 35.8325C177.064 34.8698 177.533 33.4512 177.533 31.5765C177.533 29.7018 177.064 28.2958 176.127 27.3585C175.189 26.3958 174.1 25.9145 172.859 25.9145C171.567 25.9145 170.452 26.3958 169.515 27.3585C168.603 28.2958 168.147 29.7018 168.147 31.5765C168.147 33.4512 168.603 34.8698 169.515 35.8325C170.452 36.7698 171.554 37.2385 172.821 37.2385ZM186.822 41.0005V22.1525H191.154L191.61 25.6865C192.294 24.4705 193.218 23.5078 194.384 22.7985C195.574 22.0638 196.968 21.6965 198.564 21.6965V26.8265H197.196C196.132 26.8265 195.182 26.9912 194.346 27.3205C193.51 27.6498 192.851 28.2198 192.37 29.0305C191.914 29.8412 191.686 30.9685 191.686 32.4125V41.0005H186.822ZM201.888 41.0005V13.6405H206.752V41.0005H201.888ZM214.078 49.3605L218.448 39.7465H217.308L209.974 22.1525H215.256L220.538 35.4145L226.048 22.1525H231.216L219.246 49.3605H214.078Z" fill="#170F49"/>
</svg>
